<svg width="226" height="80" viewBox="0 0 226 80" fill="none" xmlns="http://www.w3.org/2000/svg">
<g clip-path="url(#clip0)">
<g filter="url(#filter0_d)">
<path fill-rule="evenodd" clip-rule="evenodd" d="M5.47744 68.5906C5.29261 68.1719 4.98357 67.82 4.59212 67.5825C4.20067 67.345 3.74569 67.2334 3.28872 67.2628C2.96676 67.2605 2.64713 67.3175 2.34588 67.4311C2.03832 67.5525 1.75605 67.7301 1.51349 67.9548C1.22261 68.2388 1.00998 68.593 0.896161 68.9832C0.737691 69.4914 0.661898 70.0216 0.671676 70.5538V73.6388C0.661929 74.171 0.737722 74.7012 0.896161 75.2094C1.00986 75.5995 1.22252 75.9536 1.51349 76.2374C1.75594 76.4622 2.03823 76.6398 2.34588 76.7611C2.64713 76.8746 2.96676 76.9317 3.28872 76.9293C3.7501 76.9566 4.20857 76.8399 4.60068 76.5954C4.9928 76.3508 5.29918 75.9905 5.47744 75.5643L5.58968 76.7799H6.37538V67.4311H5.58968L5.47744 68.5906ZM3.53206 68.2164C4.72931 68.2164 5.32794 69.1638 5.32794 71.0586V73.134C5.32794 74.181 5.169 74.9164 4.85113 75.34C4.7004 75.5459 4.50127 75.7117 4.27131 75.8225C4.04135 75.9334 3.78762 75.9861 3.53251 75.9758C2.32268 75.9758 1.71777 75.0285 1.71777 73.134V71.0586C1.71777 69.1641 2.32268 68.2167 3.53251 68.2164H3.53206ZM8.20852 67.4311V76.7799H9.25597V71.1892C9.19501 70.3925 9.42061 69.6002 9.89216 68.955C10.096 68.7144 10.3516 68.5229 10.6399 68.395C10.9282 68.2671 11.2417 68.206 11.5569 68.2164V67.2628C11.0576 67.2592 10.5687 67.4059 10.1539 67.6837C9.71232 67.9848 9.3627 68.4021 9.14373 68.8895L8.99422 67.4311H8.20852ZM13.0165 75.1999C13.1465 75.5938 13.3751 75.9478 13.6806 76.2284C13.946 76.4625 14.2541 76.6433 14.5879 76.7611C15.249 76.9822 15.9636 76.9855 16.6267 76.7705C16.9512 76.6574 17.2524 76.4864 17.5157 76.2657C17.8201 76.001 18.0519 75.6631 18.1891 75.2839C18.3671 74.8053 18.4583 74.2988 18.4585 73.7882V73.4705H17.4295C17.4043 75.1407 16.7994 75.9758 15.6147 75.9758C15.3596 75.9861 15.1059 75.9335 14.8759 75.8226C14.6459 75.7117 14.4468 75.546 14.2961 75.34C13.9782 74.9164 13.8191 74.181 13.8188 73.134V71.0586C13.8188 70.0116 13.9811 69.2761 14.3055 68.8522C14.4558 68.6481 14.6535 68.4835 14.8816 68.3727C15.1096 68.2619 15.3613 68.2083 15.6147 68.2164C16.7868 68.2164 17.3917 69.0516 17.4295 70.7221H18.4585V70.3855C18.4582 69.8748 18.367 69.3682 18.1891 68.8895C18.0534 68.5123 17.8212 68.1772 17.5157 67.9175C17.2504 67.7025 16.9495 67.5354 16.6267 67.4239C15.9637 67.2085 15.249 67.2116 14.5879 67.4329C14.254 67.5506 13.9459 67.7316 13.6806 67.966C13.3751 68.2466 13.1465 68.6006 13.0165 68.9945C12.8445 69.4966 12.7621 70.025 12.7732 70.5556V73.6406C12.7625 74.1706 12.845 74.6984 13.017 75.1999H13.0165ZM20.1812 63.6918V76.7799H21.2286V70.8343C21.2286 69.089 21.8273 68.2164 23.0245 68.2164C24.234 68.2164 24.839 69.1638 24.8393 71.0586V76.7799H25.8867V70.5538C25.8961 70.0224 25.8236 69.4926 25.6716 68.9832C25.5637 68.5947 25.3574 68.2405 25.0727 67.9548C24.8345 67.7291 24.5551 67.5513 24.2498 67.4311C23.9485 67.3176 23.6289 67.2605 23.3069 67.2628C22.8718 67.2348 22.4387 67.3419 22.0669 67.5696C21.6952 67.7973 21.403 68.1343 21.2304 68.5345V63.6918H20.183H20.1812ZM28.9361 65.8421V64.7015H27.7203V65.8421H28.9361ZM28.8611 76.7799V67.4311H27.7948V76.7799H28.8611ZM34.6421 68.3662V67.4311H32.659V64.5704H31.5927V67.4311H30.1708V68.3662H31.5927V73.5266C31.5803 74.1263 31.6368 74.7253 31.761 75.3121C31.8341 75.7051 32.0192 76.0686 32.2939 76.359C32.5164 76.5779 32.7896 76.7385 33.0891 76.8266C33.4437 76.9156 33.8087 76.9565 34.1742 76.9482H34.6421V75.9946H34.4176C34.1374 76.0036 33.8574 75.9753 33.5847 75.9103C33.3755 75.8433 33.1925 75.7126 33.0612 75.5365C32.8844 75.2917 32.7746 75.0049 32.7429 74.7045C32.679 74.2148 32.6509 73.7211 32.659 73.2273V68.3662H34.6421ZM36.1196 75.1999C36.2497 75.5937 36.4783 75.9477 36.7836 76.2284C37.0491 76.4625 37.3572 76.6433 37.691 76.7611C38.0222 76.8744 38.37 76.9313 38.72 76.9293C39.0663 76.9317 39.4106 76.8781 39.7397 76.7705C40.0676 76.659 40.372 76.4879 40.6376 76.2657C40.9434 75.9986 41.1754 75.6574 41.311 75.2749C41.4895 74.7865 41.5751 74.269 41.5634 73.7492H40.5159C40.4656 75.2327 39.867 75.9743 38.72 75.974C37.5228 75.974 36.9242 75.1139 36.9242 73.3938V72.5713H41.5634V70.552C41.5736 70.0184 41.4913 69.487 41.32 68.9815C41.1923 68.5843 40.9596 68.2289 40.6466 67.953C40.3775 67.7264 40.0704 67.5491 39.7397 67.4293C39.4119 67.3155 39.067 67.2586 38.72 67.261C38.37 67.2591 38.0222 67.316 37.691 67.4293C37.3571 67.547 37.049 67.728 36.7836 67.9624C36.4783 68.2431 36.2497 68.5971 36.1196 68.9909C35.9478 69.493 35.8654 70.0214 35.8763 70.552V73.637C35.8652 74.1682 35.9476 74.6972 36.1196 75.1999ZM36.9242 71.7501V70.7405C36.9242 69.0577 37.5228 68.2164 38.72 68.2164C39.9173 68.2164 40.5159 69.0516 40.5159 70.7221V71.7501H36.9242ZM43.3592 75.1999C43.4892 75.5938 43.7178 75.9478 44.0233 76.2284C44.2887 76.4625 44.5968 76.6433 44.9306 76.7611C45.5917 76.9822 46.3063 76.9855 46.9694 76.7705C47.2939 76.6574 47.5951 76.4864 47.8584 76.2657C48.1628 76.001 48.3946 75.6631 48.5318 75.2839C48.7098 74.8053 48.801 74.2988 48.8012 73.7882V73.4705H47.7722C47.747 75.1407 47.1421 75.9758 45.9574 75.9758C45.7023 75.9861 45.4486 75.9335 45.2186 75.8226C44.9886 75.7117 44.7895 75.546 44.6388 75.34C44.3209 74.9164 44.1618 74.181 44.1615 73.134V71.0586C44.1615 70.0116 44.3238 69.2761 44.6482 68.8522C44.7985 68.6481 44.9962 68.4835 45.2243 68.3727C45.4524 68.2619 45.704 68.2083 45.9574 68.2164C47.1295 68.2164 47.7345 69.0516 47.7722 70.7221H48.803V70.3855C48.8027 69.8748 48.7115 69.3682 48.5336 68.8895C48.3979 68.5123 48.1657 68.1772 47.8602 67.9175C47.5949 67.7025 47.294 67.5354 46.9712 67.4239C46.3082 67.2085 45.5935 67.2116 44.9324 67.4329C44.5985 67.5506 44.2904 67.7316 44.0251 67.966C43.7196 68.2466 43.491 68.6006 43.361 68.9945C43.189 69.4966 43.1066 70.025 43.1177 70.5556V73.6406C43.1063 74.1705 43.188 74.6983 43.3592 75.1999ZM54.3213 68.3662V67.4311H52.3386V64.5704H51.2723V67.4311H49.8504V68.3662H51.2723V73.5266C51.26 74.1263 51.3165 74.7253 51.4407 75.3121C51.5138 75.7051 51.6989 76.0686 51.9736 76.359C52.1961 76.5779 52.4692 76.7385 52.7687 76.8266C53.1234 76.9156 53.4884 76.9565 53.8539 76.9482H54.3213V75.9946H54.0968C53.8168 76.0036 53.5369 75.9753 53.2644 75.9103C53.0552 75.8433 52.8722 75.7126 52.7409 75.5365C52.564 75.2917 52.4543 75.0049 52.4226 74.7045C52.3587 74.2148 52.3306 73.7211 52.3386 73.2273V68.3662H54.3213ZM60.289 73.3768C60.289 75.1223 59.6904 75.9949 58.4931 75.9946C57.2833 75.9946 56.6784 75.0472 56.6784 73.1524V67.4311H55.6309V73.6572C55.6213 74.1887 55.6938 74.7184 55.846 75.2278C55.9535 75.6164 56.1597 75.9707 56.4445 76.2563C56.6826 76.4822 56.9622 76.66 57.2679 76.7799C57.5691 76.8935 57.8887 76.9505 58.2107 76.9482C58.6771 76.9761 59.1405 76.8578 59.5363 76.6097C59.9321 76.3616 60.2404 75.9961 60.4183 75.5643L60.5305 76.7799H61.3346V67.4311H60.2872V73.3768H60.289ZM63.1134 67.4311V76.7799H64.1613V71.1892C64.1004 70.3926 64.3258 69.6003 64.7971 68.955C65.0009 68.7143 65.2566 68.5229 65.545 68.395C65.8334 68.2671 66.147 68.206 66.4623 68.2164V67.2628C65.963 67.2592 65.4741 67.4059 65.0593 67.6837C64.6176 67.9847 64.268 68.4021 64.0491 68.8895L63.8991 67.4311H63.1134ZM67.7904 75.1999C67.9205 75.5937 68.1491 75.9477 68.4544 76.2284C68.7199 76.4625 69.0279 76.6433 69.3618 76.7611C69.6929 76.8744 70.0408 76.9313 70.3908 76.9293C70.737 76.9317 71.0813 76.8781 71.4104 76.7705C71.7383 76.659 72.0427 76.4879 72.3083 76.2657C72.6142 75.9986 72.8461 75.6574 72.9818 75.2749C73.1603 74.7865 73.2458 74.269 73.2341 73.7492H72.1867C72.1364 75.2327 71.5378 75.9743 70.3908 75.974C69.1935 75.974 68.5949 75.1139 68.5949 73.3938V72.5713H73.2341V70.552C73.2444 70.0184 73.1621 69.487 72.9908 68.9815C72.863 68.5843 72.6304 68.2289 72.3173 67.953C72.0482 67.7264 71.7412 67.5491 71.4104 67.4293C71.0826 67.3155 70.7378 67.2586 70.3908 67.261C70.0408 67.2591 69.6929 67.316 69.3618 67.4293C69.0278 67.547 68.7197 67.728 68.4544 67.9624C68.1491 68.2431 67.9205 68.5971 67.7904 68.9909C67.6185 69.493 67.5362 70.0214 67.547 70.552V73.637C67.536 74.1682 67.6184 74.6972 67.7904 75.1999ZM68.5949 71.7501V70.7405C68.5949 69.0577 69.1935 68.2164 70.3908 68.2164C71.588 68.2164 72.1867 69.0516 72.1867 70.7221V71.7501H68.5949ZM80.6044 77.9017H81.8579V63.6918H80.6044V77.9017ZM93.9047 68.4968C93.7257 68.1082 93.4336 67.7825 93.0665 67.5623C92.6994 67.3422 92.2744 67.2378 91.847 67.2628C91.5251 67.2605 91.2055 67.3175 90.9042 67.4311C90.5987 67.5512 90.3191 67.729 90.0808 67.9548C89.7951 68.2413 89.5861 68.5949 89.4729 68.9832C89.3145 69.4914 89.2387 70.0217 89.2484 70.5538V73.6388C89.2387 74.171 89.3145 74.7012 89.4729 75.2094C89.586 75.5976 89.795 75.9512 90.0808 76.2374C90.319 76.4633 90.5986 76.6411 90.9042 76.7611C91.2055 76.8747 91.5251 76.9317 91.847 76.9293C92.3127 76.9542 92.7747 76.8346 93.1698 76.587C93.5649 76.3393 93.8738 75.9757 94.0542 75.5459L94.1664 76.7799H94.9521V63.6918H93.9047V68.4968ZM92.1088 68.2164C93.306 68.2164 93.9047 69.1638 93.9047 71.0586V73.134C93.9047 74.181 93.7457 74.9164 93.4279 75.34C93.277 75.5459 93.0778 75.7117 92.8478 75.8225C92.6178 75.9334 92.364 75.9861 92.1088 75.9758C90.899 75.9758 90.2941 75.0285 90.2941 73.134V71.0586C90.2941 69.1641 90.899 68.2167 92.1088 68.2164ZM96.8791 75.1999C97.0091 75.5938 97.2376 75.9478 97.5431 76.2284C97.8086 76.4625 98.1166 76.6433 98.4505 76.7611C98.7815 76.8744 99.1292 76.9313 99.4791 76.9293C99.8253 76.9318 100.17 76.8782 100.499 76.7705C100.827 76.659 101.131 76.4879 101.397 76.2657C101.702 75.9986 101.934 75.6574 102.07 75.2749C102.249 74.7865 102.334 74.2691 102.323 73.7492H101.275C101.225 75.2327 100.627 75.9743 99.4791 75.974C98.2818 75.974 97.6832 75.1139 97.6832 73.3938V72.5713H102.323V70.552C102.333 70.0184 102.251 69.487 102.08 68.9815C101.952 68.5843 101.719 68.2289 101.406 67.953C101.137 67.7264 100.83 67.5491 100.499 67.4293C100.171 67.3155 99.8261 67.2585 99.4791 67.261C99.1292 67.2591 98.7815 67.316 98.4505 67.4293C98.1165 67.547 97.8085 67.728 97.5431 67.9624C97.2376 68.243 97.0091 68.5971 96.8791 68.9909C96.707 69.493 96.6247 70.0214 96.6358 70.552V73.637C96.6245 74.1682 96.7069 74.6973 96.8791 75.1999ZM97.6832 71.7501V70.7405C97.6832 69.0577 98.2818 68.2164 99.4791 68.2164C100.676 68.2164 101.275 69.0516 101.275 70.7221V71.7501H97.6832ZM103.763 73.9938V74.1997C103.749 74.5851 103.823 74.9685 103.979 75.3213C104.134 75.6742 104.367 75.9874 104.661 76.2374C105.214 76.6916 105.91 76.9366 106.625 76.9293C107.376 76.9616 108.113 76.7227 108.702 76.2563C108.981 75.9995 109.199 75.6826 109.338 75.3296C109.478 74.9765 109.535 74.5965 109.506 74.2181C109.529 73.563 109.313 72.9218 108.898 72.4142C108.348 71.8527 107.64 71.4712 106.868 71.3202C106.832 71.3043 106.794 71.2918 106.756 71.283C106.531 71.2079 106.351 71.1455 106.214 71.0959C106.034 71.025 105.862 70.9374 105.699 70.8343C105.501 70.7182 105.34 70.5499 105.232 70.3478C105.122 70.1341 105.067 69.8965 105.072 69.6563C105.072 68.6964 105.615 68.2164 106.7 68.2164C107.117 68.2047 107.523 68.3556 107.832 68.6373C108.169 68.9926 108.353 69.4656 108.346 69.9552V70.1612H109.394V69.974C109.407 69.5976 109.34 69.2226 109.196 68.8743C109.053 68.526 108.836 68.2124 108.561 67.9548C108.049 67.5002 107.385 67.2534 106.7 67.2628C106.011 67.236 105.334 67.4474 104.783 67.8614C104.52 68.0889 104.315 68.375 104.183 68.6966C104.051 69.0181 103.997 69.3661 104.025 69.7124C104.016 70.0839 104.093 70.4523 104.249 70.7894C104.394 71.0891 104.617 71.3442 104.895 71.5275C105.146 71.6984 105.412 71.8456 105.69 71.9673C105.974 72.0833 106.269 72.1734 106.569 72.2365C107.089 72.3674 107.57 72.6206 107.972 72.9751C108.134 73.1452 108.259 73.3467 108.339 73.567C108.419 73.7873 108.454 74.0217 108.44 74.2558C108.44 75.4028 107.835 75.9761 106.625 75.9758C106.17 75.9866 105.725 75.8341 105.372 75.5459C105.184 75.3694 105.036 75.1543 104.94 74.9154C104.843 74.6765 104.799 74.4195 104.811 74.162V73.9938H103.763ZM112.349 65.8421V64.7015H111.133V65.8421H112.349ZM112.275 76.7799V67.4311H111.21V76.7799H112.276H112.275ZM114.295 75.0595C114.408 75.4477 114.617 75.8012 114.903 76.0875C115.141 76.3134 115.42 76.4912 115.726 76.6112C116.027 76.7248 116.347 76.7818 116.669 76.7795C117.101 76.8058 117.531 76.6977 117.899 76.47C118.268 76.2423 118.557 75.9062 118.726 75.5078V76.5735C118.726 78.2188 118.128 79.0415 116.931 79.0415C116.567 79.0666 116.206 78.9647 115.91 78.7533C115.613 78.5418 115.399 78.234 115.305 77.8824H114.22C114.337 78.5285 114.699 79.1044 115.23 79.4902C115.733 79.828 116.327 80.0042 116.932 79.9951C117.286 79.9986 117.637 79.9417 117.971 79.8268C118.299 79.7083 118.604 79.531 118.869 79.3036C119.174 79.0302 119.403 78.6823 119.533 78.2939C119.704 77.8013 119.787 77.2821 119.776 76.7606V67.4311H118.99L118.878 68.609C118.691 68.1867 118.379 67.8315 117.985 67.5909C117.59 67.3504 117.132 67.2359 116.671 67.2628C116.349 67.2605 116.029 67.3175 115.728 67.4311C115.422 67.5512 115.143 67.729 114.905 67.9548C114.619 68.2412 114.41 68.5949 114.296 68.9832C114.138 69.4914 114.062 70.0217 114.072 70.5538V73.4889C114.062 74.021 114.137 74.5513 114.295 75.0595H114.295ZM118.252 75.2278C118.101 75.4338 117.902 75.5995 117.672 75.7104C117.442 75.8213 117.188 75.8739 116.933 75.8636C115.723 75.8636 115.118 74.9163 115.118 73.0218V71.0586C115.131 69.1641 115.736 68.2167 116.933 68.2164C117.188 68.2062 117.442 68.2588 117.672 68.3697C117.902 68.4805 118.101 68.6463 118.252 68.8522C118.57 69.2764 118.729 70.0119 118.729 71.0586V73.0218C118.728 74.0685 118.569 74.8039 118.251 75.2278H118.252ZM121.629 67.4311V76.7799H122.676V70.8343C122.676 69.089 123.275 68.2164 124.472 68.2164C125.681 68.2164 126.286 69.1638 126.287 71.0586V76.7799H127.334V70.5538C127.344 70.0217 127.268 69.4914 127.11 68.9832C126.996 68.5949 126.787 68.2413 126.502 67.9548C126.263 67.7291 125.984 67.5513 125.678 67.4311C125.377 67.3176 125.057 67.2605 124.735 67.2628C124.272 67.2367 123.812 67.356 123.419 67.6041C123.027 67.8523 122.722 68.2168 122.547 68.6467L122.416 67.4311H121.63H121.629ZM134.781 77.9017H136.034V63.6918H134.781V77.9017ZM146.809 75.1717L144.395 67.4311H143.348L146.21 76.7799H147.426L150.288 67.4311H149.222L146.809 75.1717ZM152.926 65.8421V64.7015H151.707V65.8421H152.923H152.926ZM152.851 76.7799V67.4311H151.783V76.7799H152.849H152.851ZM154.534 73.9938V74.1997C154.521 74.5851 154.594 74.9685 154.75 75.3213C154.905 75.6742 155.139 75.9874 155.432 76.2374C155.985 76.6914 156.681 76.9364 157.397 76.9293C158.147 76.9618 158.884 76.7228 159.473 76.2563C159.753 75.9995 159.97 75.6827 160.11 75.3296C160.249 74.9766 160.307 74.5966 160.278 74.2181C160.301 73.563 160.085 72.9219 159.67 72.4142C159.119 71.8527 158.412 71.4712 157.64 71.3202C157.604 71.3043 157.566 71.2918 157.528 71.283C157.303 71.2079 157.122 71.1455 156.985 71.0959C156.806 71.0251 156.634 70.9375 156.471 70.8343C156.273 70.7181 156.111 70.5498 156.003 70.3478C155.894 70.134 155.839 69.8964 155.844 69.6563C155.844 68.6964 156.387 68.2164 157.472 68.2164C157.889 68.2047 158.295 68.3556 158.603 68.6373C158.94 68.9928 159.125 69.4657 159.118 69.9552V70.1612H160.165V69.974C160.179 69.5976 160.111 69.2226 159.968 68.8743C159.824 68.526 159.608 68.2125 159.333 67.9548C158.82 67.5003 158.157 67.2535 157.472 67.2628C156.783 67.236 156.105 67.4474 155.554 67.8614C155.291 68.089 155.086 68.3751 154.954 68.6966C154.823 69.0182 154.769 69.3661 154.797 69.7124C154.788 70.0839 154.864 70.4524 155.021 70.7894C155.166 71.0891 155.388 71.3442 155.666 71.5275C155.917 71.6984 156.183 71.8456 156.461 71.9673C156.746 72.0834 157.04 72.1735 157.34 72.2365C157.86 72.3672 158.342 72.6204 158.743 72.9751C158.905 73.1452 159.03 73.3466 159.11 73.5669C159.191 73.7872 159.225 74.0217 159.211 74.2558C159.211 75.4028 158.606 75.9761 157.397 75.9758C156.941 75.9865 156.497 75.834 156.144 75.5459C155.956 75.3694 155.808 75.1543 155.711 74.9154C155.614 74.6765 155.57 74.4195 155.582 74.162V73.9938H154.534ZM166.451 73.3768C166.451 75.1223 165.852 75.9949 164.655 75.9946C163.445 75.9946 162.84 75.0472 162.84 73.1524V67.4311H161.793V73.6572C161.783 74.1887 161.856 74.7184 162.008 75.2278C162.115 75.6164 162.322 75.9707 162.606 76.2563C162.845 76.4822 163.124 76.66 163.43 76.7799C163.731 76.8935 164.051 76.9505 164.373 76.9482C164.839 76.9762 165.302 76.8578 165.698 76.6097C166.094 76.3616 166.402 75.9961 166.58 75.5643L166.692 76.7799H167.497V67.4311H166.449V73.3768H166.451ZM173.931 68.5906C173.746 68.1718 173.437 67.8199 173.046 67.5824C172.654 67.3449 172.199 67.2334 171.742 67.2628C171.42 67.2605 171.1 67.3175 170.799 67.4311C170.492 67.5525 170.209 67.7301 169.967 67.9548C169.676 68.2388 169.463 68.593 169.35 68.9832C169.191 69.4914 169.115 70.0217 169.125 70.5538V73.6388C169.115 74.171 169.191 74.7012 169.35 75.2094C169.463 75.5995 169.676 75.9536 169.967 76.2374C170.209 76.4622 170.492 76.6398 170.799 76.7611C171.1 76.8747 171.42 76.9317 171.742 76.9293C172.203 76.9567 172.662 76.84 173.054 76.5954C173.446 76.3509 173.753 75.9906 173.931 75.5643L174.043 76.7799H174.829V67.4311H174.043L173.931 68.5906ZM171.985 68.2164C173.183 68.2164 173.781 69.1638 173.781 71.0586V73.134C173.781 74.181 173.622 74.9164 173.304 75.34C173.153 75.546 172.954 75.7117 172.724 75.8226C172.494 75.9335 172.241 75.9861 171.985 75.9758C170.776 75.9758 170.171 75.0285 170.171 73.134V71.0586C170.171 69.1641 170.776 68.2167 171.985 68.2164ZM177.747 76.7799V63.6918H176.7V76.7799H177.747ZM180.796 65.8421V64.7015H179.58V65.8421H180.796ZM180.721 76.7799V67.4311H179.655V76.7799H180.721ZM187.718 68.2541V67.4311H182.387V68.4035H186.577L182.181 75.957V76.7799H187.775V75.8264H183.341L187.718 68.2541ZM193.798 68.5906C193.613 68.1719 193.304 67.82 192.912 67.5826C192.521 67.3451 192.066 67.2335 191.609 67.2628C191.287 67.2606 190.967 67.3176 190.666 67.4311C190.359 67.5527 190.076 67.7303 189.834 67.9548C189.543 68.2389 189.33 68.5931 189.216 68.9832C189.058 69.4914 188.982 70.0217 188.992 70.5538V73.6388C188.982 74.171 189.058 74.7012 189.216 75.2094C189.33 75.5994 189.543 75.9535 189.834 76.2374C190.076 76.4621 190.359 76.6396 190.666 76.7611C190.967 76.8746 191.287 76.9316 191.609 76.9293C192.07 76.9566 192.529 76.8398 192.921 76.5953C193.313 76.3507 193.619 75.9905 193.798 75.5643L193.91 76.7799H194.696V67.4311H193.91L193.798 68.5906ZM191.852 68.2164C193.049 68.2164 193.648 69.1638 193.648 71.0586V73.134C193.648 74.181 193.489 74.9164 193.171 75.34C193.02 75.5459 192.821 75.7117 192.591 75.8225C192.361 75.9334 192.107 75.9861 191.852 75.9758C190.642 75.9758 190.038 75.0285 190.038 73.134V71.0586C190.038 69.1641 190.642 68.2167 191.852 68.2164ZM200.513 68.3662V67.4311H198.53V64.5704H197.464V67.4311H196.043V68.3662H197.464V73.5266C197.452 74.1263 197.508 74.7253 197.632 75.3121C197.705 75.7052 197.891 76.0688 198.166 76.359C198.388 76.5781 198.661 76.7387 198.961 76.8266C199.315 76.9156 199.68 76.9565 200.046 76.9482H200.513V75.9946H200.289C200.009 76.0037 199.729 75.9753 199.456 75.9103C199.247 75.8433 199.064 75.7126 198.933 75.5365C198.756 75.2916 198.646 75.0048 198.615 74.7045C198.551 74.2149 198.522 73.7211 198.53 73.2273V68.3662H200.513ZM203.413 65.8421V64.7015H202.197V65.8421H203.413ZM203.338 76.7799V67.4311H202.272V76.7799H203.338ZM205.377 75.1999C205.507 75.5937 205.736 75.9477 206.042 76.2284C206.307 76.4624 206.615 76.6432 206.948 76.7611C207.616 76.9854 208.339 76.9854 209.007 76.7611C209.341 76.643 209.651 76.4656 209.923 76.2374C210.236 75.9617 210.469 75.6065 210.596 75.2094C210.768 74.7038 210.85 74.1724 210.84 73.6388V70.5538C210.85 70.0202 210.768 69.4888 210.596 68.9832C210.469 68.5861 210.236 68.2307 209.923 67.9548C209.651 67.7267 209.341 67.5494 209.007 67.4311C208.339 67.2067 207.616 67.2067 206.948 67.4311C206.615 67.5489 206.307 67.7299 206.042 67.9642C205.736 68.2449 205.507 68.5989 205.377 68.9927C205.205 69.4948 205.123 70.0232 205.134 70.5538V73.6388C205.123 74.1694 205.206 74.6978 205.378 75.1999H205.377ZM207.977 75.9758C207.722 75.9861 207.469 75.9335 207.239 75.8226C207.009 75.7117 206.81 75.546 206.659 75.34C206.34 74.9164 206.181 74.181 206.182 73.134V71.0586C206.182 70.0116 206.344 69.2761 206.668 68.8522C206.818 68.648 207.016 68.4834 207.244 68.3726C207.472 68.2618 207.724 68.2082 207.977 68.2164C209.187 68.2164 209.792 69.1638 209.792 71.0586V73.134C209.792 75.0285 209.187 75.9758 207.977 75.9758ZM212.561 67.4311V76.7799H213.608V70.8343C213.608 69.089 214.207 68.2164 215.404 68.2164C216.614 68.2164 217.219 69.1638 217.219 71.0586V76.7799H218.267V70.5538C218.276 70.0217 218.2 69.4914 218.042 68.9832C217.928 68.595 217.719 68.2414 217.434 67.9548C217.195 67.7291 216.916 67.5513 216.611 67.4311C216.309 67.3176 215.99 67.2605 215.668 67.2628C215.204 67.2367 214.744 67.356 214.352 67.6041C213.959 67.8523 213.654 68.2168 213.479 68.6467L213.348 67.4311H212.562H212.561Z" fill="#5B5B5B"/>
</g>
<g filter="url(#filter1_d)">
<path fill-rule="evenodd" clip-rule="evenodd" d="M5.65329 0.874405H-0.00372314V50.6834H5.38391L5.24922 8.75141L34.813 50.6834H40.2006V0.874405H34.813L34.8803 42.4717L5.65329 0.874405ZM47.8115 25.9799C47.8115 40.1813 59.0578 51.5575 73.8068 51.5575C88.4881 51.5575 99.8022 40.3842 99.8022 25.7794C99.8022 11.1746 88.4213 0.000732422 73.8068 0.000732422C59.7321 0.000732422 47.8115 10.5679 47.8115 25.914V25.9813V25.9799ZM53.4012 25.7107C53.4012 14.2012 62.0883 4.91253 73.806 4.91253C85.6587 4.91253 94.279 14.4032 94.279 25.7785C94.279 37.1538 85.6587 46.6444 73.8742 46.6444C62.2239 46.6444 53.4012 37.4903 53.4012 25.7785V25.7111V25.7107ZM107.008 50.6812H112.597V5.78755H120.409C124.921 5.78755 128.019 5.98948 130.511 7.60491C133.609 9.62419 135.427 13.5281 135.427 17.2297C135.477 18.9347 135.167 20.631 134.517 22.2082C133.867 23.7854 132.892 25.2081 131.656 26.3838C128.962 28.8738 124.113 28.9416 120.611 28.9416H118.995L133.069 50.6816H139.13L126.739 32.0378C131.318 31.5666 134.887 30.6243 137.85 26.5862C139.873 23.7414 140.913 20.315 140.813 16.8263C140.813 11.1723 138.052 5.85531 134.011 3.43262C131.452 1.81719 127.816 0.874857 120.004 0.874857H107.008V50.6839V50.6812ZM147.011 50.6812H162.164C178.932 50.6812 187.485 40.7194 187.485 25.7107C187.485 18.6432 185.532 12.7873 181.492 8.34486C176.508 2.42163 168.965 0.87396 161.895 0.87396H147.01V50.683L147.011 50.6812ZM152.534 5.78755H162.433C169.234 5.78755 173.882 8.00876 177.046 11.3742C180.346 15.0089 181.895 20.1245 181.895 25.9131C181.895 37.8942 175.229 45.7685 162.433 45.7685H152.533V5.78665L152.534 5.78755ZM204.39 50.6812H209.979V33.1807L226.007 0.872166H219.946L207.218 27.7959L194.422 0.872166H188.361L204.39 33.1807V50.6812Z" fill="#5B5B5B"/>
<path d="M35.3803 42.4708L35.3138 1.37441H39.7006V50.1834H35.0722L5.65787 8.4633L4.74413 7.16729L4.74922 8.75301L4.8823 50.1834H0.496277V1.37441H5.39352L34.4712 42.7591L35.3829 44.0567L35.3803 42.4708ZM107.508 50.1812V1.37486H120.004C127.789 1.37486 131.308 2.31744 133.745 3.85542L133.744 3.85554L133.754 3.86144C137.617 6.17755 140.313 11.3139 140.313 16.8263V16.8335L140.314 16.8406C140.41 20.2195 139.403 23.5379 137.445 26.2935C136.014 28.2419 134.451 29.4288 132.701 30.1912C130.938 30.9591 128.963 31.3063 126.687 31.5404L125.864 31.6251L126.322 32.3146L138.197 50.1816H133.341L119.914 29.4416H120.611C122.36 29.4416 124.486 29.4254 126.518 29.0897C128.545 28.7549 130.544 28.0926 131.995 26.751L132 26.7461C133.288 25.5221 134.303 24.0408 134.979 22.3986C135.655 20.7588 135.978 18.9952 135.927 17.2225C135.925 13.3812 134.043 9.31019 130.784 7.18603L130.783 7.18534C128.149 5.478 124.902 5.28755 120.409 5.28755H112.597H112.097V5.78755V50.1812H107.508ZM147.51 1.37396H161.895C168.913 1.37396 176.268 2.91296 181.109 8.66676L181.115 8.67415L181.122 8.6813C185.061 13.0119 186.985 18.7381 186.985 25.7107C186.985 33.1223 184.875 39.2265 180.754 43.4761C176.635 47.7228 170.448 50.1812 162.164 50.1812H147.51V1.37396ZM162.433 5.28755H152.742L152.033 4.57343V5.78665V45.7685V46.2685H152.533H162.433C168.936 46.2685 173.946 44.2646 177.326 40.6766C180.703 37.0933 182.395 31.9932 182.395 25.9131C182.395 20.0413 180.824 14.7914 177.417 11.0381L177.411 11.0317C174.14 7.55394 169.355 5.28755 162.433 5.28755ZM225.201 1.37217L209.531 32.9585L209.479 33.0635V33.1807V50.1812H204.89V33.1807V33.0635L204.838 32.9585L189.168 1.37217H194.107L206.767 28.0106L207.219 28.9633L207.67 28.0096L220.263 1.37217H225.201ZM73.8068 51.0575C59.3307 51.0575 48.3122 39.9023 48.3115 25.9813C48.3115 25.9808 48.3115 25.9804 48.3115 25.9799V25.914C48.3115 10.862 59.9899 0.500732 73.8068 0.500732C88.1505 0.500732 99.3022 11.4561 99.3022 25.7794C99.3022 40.1035 88.2166 51.0575 73.8068 51.0575ZM73.806 4.41253C61.7964 4.41253 52.9012 13.9411 52.9012 25.7107V25.7111V25.7785C52.9012 37.7549 61.9363 47.1444 73.8742 47.1444C85.9558 47.1444 94.779 37.4085 94.779 25.7785C94.779 14.1473 85.9547 4.41253 73.806 4.41253Z" stroke="black"/>
</g>
</g>
<defs>
<filter id="filter0_d" x="-3.32916" y="63.6918" width="225.597" height="24.3036" filterUnits="userSpaceOnUse" color-interpolation-filters="sRGB">
<feFlood flood-opacity="0" result="BackgroundImageFix"/>
<feColorMatrix in="SourceAlpha" type="matrix" values="0 0 0 0 0 0 0 0 0 0 0 0 0 0 0 0 0 0 127 0"/>
<feOffset dy="4"/>
<feGaussianBlur stdDeviation="2"/>
<feColorMatrix type="matrix" values="0 0 0 0 0 0 0 0 0 0 0 0 0 0 0 0 0 0 0.25 0"/>
<feBlend mode="normal" in2="BackgroundImageFix" result="effect1_dropShadow"/>
<feBlend mode="normal" in="SourceGraphic" in2="effect1_dropShadow" result="shape"/>
</filter>
<filter id="filter1_d" x="-4.00372" y="0.000732422" width="234.011" height="59.5568" filterUnits="userSpaceOnUse" color-interpolation-filters="sRGB">
<feFlood flood-opacity="0" result="BackgroundImageFix"/>
<feColorMatrix in="SourceAlpha" type="matrix" values="0 0 0 0 0 0 0 0 0 0 0 0 0 0 0 0 0 0 127 0"/>
<feOffset dy="4"/>
<feGaussianBlur stdDeviation="2"/>
<feColorMatrix type="matrix" values="0 0 0 0 0 0 0 0 0 0 0 0 0 0 0 0 0 0 0.25 0"/>
<feBlend mode="normal" in2="BackgroundImageFix" result="effect1_dropShadow"/>
<feBlend mode="normal" in="SourceGraphic" in2="effect1_dropShadow" result="shape"/>
</filter>
<clipPath id="clip0">
<rect width="226" height="80" fill="white"/>
</clipPath>
</defs>
</svg>
