<svg width="226" height="80" viewBox="0 0 226 80" fill="none" xmlns="http://www.w3.org/2000/svg">
<g clip-path="url(#clip0)">
<path fill-rule="evenodd" clip-rule="evenodd" d="M5.47744 68.5902C5.29261 68.1714 4.98357 67.8195 4.59212 67.5821C4.20067 67.3446 3.74569 67.233 3.28872 67.2624C2.96676 67.2601 2.64713 67.3171 2.34588 67.4307C2.03832 67.5521 1.75605 67.7297 1.51349 67.9543C1.22261 68.2384 1.00998 68.5926 0.896161 68.9828C0.737691 69.491 0.661898 70.0212 0.671676 70.5534V73.6384C0.661929 74.1705 0.737722 74.7008 0.896161 75.2089C1.00986 75.5991 1.22252 75.9532 1.51349 76.237C1.75594 76.4618 2.03823 76.6394 2.34588 76.7606C2.64713 76.8742 2.96676 76.9313 3.28872 76.9289C3.7501 76.9562 4.20857 76.8395 4.60068 76.5949C4.9928 76.3504 5.29918 75.9901 5.47744 75.5639L5.58968 76.7795H6.37538V67.4307H5.58968L5.47744 68.5902ZM3.53206 68.2159C4.72931 68.2159 5.32794 69.1634 5.32794 71.0582V73.1336C5.32794 74.1806 5.169 74.9159 4.85113 75.3395C4.7004 75.5455 4.50127 75.7112 4.27131 75.8221C4.04135 75.933 3.78762 75.9856 3.53251 75.9754C2.32268 75.9754 1.71777 75.0281 1.71777 73.1336V71.0582C1.71777 69.1637 2.32268 68.2162 3.53251 68.2159H3.53206ZM8.20852 67.4307V76.7795H9.25597V71.1888C9.19501 70.3921 9.42061 69.5998 9.89216 68.9546C10.096 68.7139 10.3516 68.5225 10.6399 68.3946C10.9282 68.2667 11.2417 68.2056 11.5569 68.2159V67.2624C11.0576 67.2588 10.5687 67.4055 10.1539 67.6833C9.71232 67.9844 9.3627 68.4017 9.14373 68.889L8.99422 67.4307H8.20852ZM13.0165 75.1995C13.1465 75.5933 13.3751 75.9474 13.6806 76.228C13.946 76.4621 14.2541 76.6429 14.5879 76.7606C15.249 76.9818 15.9636 76.9851 16.6267 76.7701C16.9512 76.657 17.2524 76.486 17.5157 76.2653C17.8201 76.0006 18.0519 75.6627 18.1891 75.2834C18.3671 74.8048 18.4583 74.2984 18.4585 73.7878V73.4701H17.4295C17.4043 75.1403 16.7994 75.9754 15.6147 75.9754C15.3596 75.9857 15.1059 75.9331 14.8759 75.8222C14.6459 75.7113 14.4468 75.5455 14.2961 75.3395C13.9782 74.9159 13.8191 74.1806 13.8188 73.1336V71.0582C13.8188 70.0112 13.9811 69.2757 14.3055 68.8518C14.4558 68.6476 14.6535 68.4831 14.8816 68.3723C15.1096 68.2615 15.3613 68.2079 15.6147 68.2159C16.7868 68.2159 17.3917 69.0512 17.4295 70.7216H18.4585V70.3851C18.4582 69.8744 18.367 69.3678 18.1891 68.889C18.0534 68.5118 17.8212 68.1767 17.5157 67.9171C17.2504 67.7021 16.9495 67.535 16.6267 67.4235C15.9637 67.2081 15.249 67.2112 14.5879 67.4325C14.254 67.5502 13.9459 67.7312 13.6806 67.9656C13.3751 68.2462 13.1465 68.6002 13.0165 68.994C12.8445 69.4961 12.7621 70.0246 12.7732 70.5552V73.6402C12.7625 74.1702 12.845 74.698 13.017 75.1995H13.0165ZM20.1812 63.6914V76.7795H21.2286V70.8338C21.2286 69.0886 21.8273 68.2159 23.0245 68.2159C24.234 68.2159 24.839 69.1634 24.8393 71.0582V76.7795H25.8867V70.5534C25.8961 70.0219 25.8236 69.4922 25.6716 68.9828C25.5637 68.5943 25.3574 68.2401 25.0727 67.9543C24.8345 67.7287 24.5551 67.5509 24.2498 67.4307C23.9485 67.3171 23.6289 67.2601 23.3069 67.2624C22.8718 67.2343 22.4387 67.3415 22.0669 67.5691C21.6952 67.7968 21.403 68.1339 21.2304 68.5341V63.6914H20.183H20.1812ZM28.9361 65.8417V64.701H27.7203V65.8417H28.9361ZM28.8611 76.7795V67.4307H27.7948V76.7795H28.8611ZM34.6421 68.3658V67.4307H32.659V64.57H31.5927V67.4307H30.1708V68.3658H31.5927V73.5262C31.5803 74.1258 31.6368 74.7249 31.761 75.3117C31.8341 75.7047 32.0192 76.0682 32.2939 76.3586C32.5164 76.5775 32.7896 76.7381 33.0891 76.8262C33.4437 76.9151 33.8087 76.956 34.1742 76.9478H34.6421V75.9942H34.4176C34.1374 76.0032 33.8574 75.9748 33.5847 75.9099C33.3755 75.8429 33.1925 75.7122 33.0612 75.5361C32.8844 75.2912 32.7746 75.0044 32.7429 74.7041C32.679 74.2144 32.6509 73.7207 32.659 73.2269V68.3658H34.6421ZM36.1196 75.1995C36.2497 75.5933 36.4783 75.9473 36.7836 76.228C37.0491 76.4621 37.3572 76.6429 37.691 76.7606C38.0222 76.874 38.37 76.9309 38.72 76.9289C39.0663 76.9313 39.4106 76.8777 39.7397 76.7701C40.0676 76.6586 40.372 76.4874 40.6376 76.2653C40.9434 75.9982 41.1754 75.657 41.311 75.2745C41.4895 74.786 41.5751 74.2686 41.5634 73.7488H40.5159C40.4656 75.2323 39.867 75.9739 38.72 75.9736C37.5228 75.9736 36.9242 75.1135 36.9242 73.3934V72.5709H41.5634V70.5516C41.5736 70.0179 41.4913 69.4866 41.32 68.981C41.1923 68.5838 40.9596 68.2285 40.6466 67.9525C40.3775 67.726 40.0704 67.5487 39.7397 67.4289C39.4119 67.3151 39.067 67.2582 38.72 67.2606C38.37 67.2586 38.0222 67.3155 37.691 67.4289C37.3571 67.5466 37.049 67.7276 36.7836 67.962C36.4783 68.2427 36.2497 68.5967 36.1196 68.9904C35.9478 69.4926 35.8654 70.021 35.8763 70.5516V73.6366C35.8652 74.1678 35.9476 74.6968 36.1196 75.1995ZM36.9242 71.7497V70.7401C36.9242 69.0573 37.5228 68.2159 38.72 68.2159C39.9173 68.2159 40.5159 69.0512 40.5159 70.7216V71.7497H36.9242ZM43.3592 75.1995C43.4892 75.5933 43.7178 75.9474 44.0233 76.228C44.2887 76.4621 44.5968 76.6429 44.9306 76.7606C45.5917 76.9818 46.3063 76.9851 46.9694 76.7701C47.2939 76.657 47.5951 76.486 47.8584 76.2653C48.1628 76.0006 48.3946 75.6627 48.5318 75.2834C48.7098 74.8048 48.801 74.2984 48.8012 73.7878V73.4701H47.7722C47.747 75.1403 47.1421 75.9754 45.9574 75.9754C45.7023 75.9857 45.4486 75.9331 45.2186 75.8222C44.9886 75.7113 44.7895 75.5455 44.6388 75.3395C44.3209 74.9159 44.1618 74.1806 44.1615 73.1336V71.0582C44.1615 70.0112 44.3238 69.2757 44.6482 68.8518C44.7985 68.6476 44.9962 68.4831 45.2243 68.3723C45.4524 68.2615 45.704 68.2079 45.9574 68.2159C47.1295 68.2159 47.7345 69.0512 47.7722 70.7216H48.803V70.3851C48.8027 69.8744 48.7115 69.3678 48.5336 68.889C48.3979 68.5118 48.1657 68.1767 47.8602 67.9171C47.5949 67.7021 47.294 67.535 46.9712 67.4235C46.3082 67.2081 45.5935 67.2112 44.9324 67.4325C44.5985 67.5502 44.2904 67.7312 44.0251 67.9656C43.7196 68.2462 43.491 68.6002 43.361 68.994C43.189 69.4961 43.1066 70.0246 43.1177 70.5552V73.6402C43.1063 74.1701 43.188 74.6979 43.3592 75.1995ZM54.3213 68.3658V67.4307H52.3386V64.57H51.2723V67.4307H49.8504V68.3658H51.2723V73.5262C51.26 74.1258 51.3165 74.7249 51.4407 75.3117C51.5138 75.7047 51.6989 76.0682 51.9736 76.3586C52.1961 76.5775 52.4692 76.7381 52.7687 76.8262C53.1234 76.9151 53.4884 76.956 53.8539 76.9478H54.3213V75.9942H54.0968C53.8168 76.0032 53.5369 75.9748 53.2644 75.9099C53.0552 75.8429 52.8722 75.7122 52.7409 75.5361C52.564 75.2912 52.4543 75.0044 52.4226 74.7041C52.3587 74.2144 52.3306 73.7207 52.3386 73.2269V68.3658H54.3213ZM60.289 73.3763C60.289 75.1219 59.6904 75.9945 58.4931 75.9942C57.2833 75.9942 56.6784 75.0468 56.6784 73.152V67.4307H55.6309V73.6568C55.6213 74.1883 55.6938 74.718 55.846 75.2273C55.9535 75.616 56.1597 75.9702 56.4445 76.2558C56.6826 76.4817 56.9622 76.6595 57.2679 76.7795C57.5691 76.8931 57.8887 76.9501 58.2107 76.9478C58.6771 76.9757 59.1405 76.8574 59.5363 76.6093C59.9321 76.3612 60.2404 75.9957 60.4183 75.5639L60.5305 76.7795H61.3346V67.4307H60.2872V73.3763H60.289ZM63.1134 67.4307V76.7795H64.1613V71.1888C64.1004 70.3921 64.3258 69.5999 64.7971 68.9546C65.0009 68.7139 65.2566 68.5224 65.545 68.3945C65.8334 68.2666 66.147 68.2056 66.4623 68.2159V67.2624C65.963 67.2588 65.4741 67.4054 65.0593 67.6833C64.6176 67.9843 64.268 68.4016 64.0491 68.889L63.8991 67.4307H63.1134ZM67.7904 75.1995C67.9205 75.5933 68.1491 75.9473 68.4544 76.228C68.7199 76.4621 69.0279 76.6429 69.3618 76.7606C69.6929 76.874 70.0408 76.9309 70.3908 76.9289C70.737 76.9313 71.0813 76.8777 71.4104 76.7701C71.7383 76.6586 72.0427 76.4874 72.3083 76.2653C72.6142 75.9982 72.8461 75.657 72.9818 75.2745C73.1603 74.786 73.2458 74.2686 73.2341 73.7488H72.1867C72.1364 75.2323 71.5378 75.9739 70.3908 75.9736C69.1935 75.9736 68.5949 75.1135 68.5949 73.3934V72.5709H73.2341V70.5516C73.2444 70.0179 73.1621 69.4866 72.9908 68.981C72.863 68.5838 72.6304 68.2285 72.3173 67.9525C72.0482 67.726 71.7412 67.5487 71.4104 67.4289C71.0826 67.3151 70.7378 67.2582 70.3908 67.2606C70.0408 67.2586 69.6929 67.3155 69.3618 67.4289C69.0278 67.5466 68.7197 67.7276 68.4544 67.962C68.1491 68.2427 67.9205 68.5967 67.7904 68.9904C67.6185 69.4926 67.5362 70.021 67.547 70.5516V73.6366C67.536 74.1678 67.6184 74.6968 67.7904 75.1995ZM68.5949 71.7497V70.7401C68.5949 69.0573 69.1935 68.2159 70.3908 68.2159C71.588 68.2159 72.1867 69.0512 72.1867 70.7216V71.7497H68.5949ZM80.6044 77.9013H81.8579V63.6914H80.6044V77.9013ZM93.9047 68.4964C93.7257 68.1077 93.4336 67.782 93.0665 67.5619C92.6994 67.3417 92.2744 67.2374 91.847 67.2624C91.5251 67.26 91.2055 67.3171 90.9042 67.4307C90.5987 67.5508 90.3191 67.7286 90.0808 67.9543C89.7951 68.2408 89.5861 68.5945 89.4729 68.9828C89.3145 69.491 89.2387 70.0212 89.2484 70.5534V73.6384C89.2387 74.1705 89.3145 74.7008 89.4729 75.2089C89.586 75.5972 89.795 75.9507 90.0808 76.237C90.319 76.4629 90.5986 76.6407 90.9042 76.7606C91.2055 76.8742 91.5251 76.9313 91.847 76.9289C92.3127 76.9537 92.7747 76.8342 93.1698 76.5865C93.5649 76.3389 93.8738 75.9753 94.0542 75.5455L94.1664 76.7795H94.9521V63.6914H93.9047V68.4964ZM92.1088 68.2159C93.306 68.2159 93.9047 69.1634 93.9047 71.0582V73.1336C93.9047 74.1806 93.7457 74.9159 93.4279 75.3395C93.277 75.5455 93.0778 75.7112 92.8478 75.8221C92.6178 75.933 92.364 75.9856 92.1088 75.9754C90.899 75.9754 90.2941 75.0281 90.2941 73.1336V71.0582C90.2941 69.1637 90.899 68.2162 92.1088 68.2159ZM96.8791 75.1995C97.0091 75.5933 97.2376 75.9474 97.5431 76.228C97.8086 76.4621 98.1166 76.6429 98.4505 76.7606C98.7815 76.874 99.1292 76.9309 99.4791 76.9289C99.8253 76.9314 100.17 76.8777 100.499 76.7701C100.827 76.6586 101.131 76.4874 101.397 76.2653C101.702 75.9982 101.934 75.657 102.07 75.2745C102.249 74.7861 102.334 74.2686 102.323 73.7488H101.275C101.225 75.2323 100.627 75.9739 99.4791 75.9736C98.2818 75.9736 97.6832 75.1135 97.6832 73.3934V72.5709H102.323V70.5516C102.333 70.0179 102.251 69.4866 102.08 68.981C101.952 68.5838 101.719 68.2285 101.406 67.9525C101.137 67.726 100.83 67.5487 100.499 67.4289C100.171 67.315 99.8261 67.2581 99.4791 67.2606C99.1292 67.2586 98.7815 67.3155 98.4505 67.4289C98.1165 67.5466 97.8085 67.7276 97.5431 67.962C97.2376 68.2426 97.0091 68.5966 96.8791 68.9904C96.707 69.4925 96.6247 70.021 96.6358 70.5516V73.6366C96.6245 74.1678 96.7069 74.6968 96.8791 75.1995ZM97.6832 71.7497V70.7401C97.6832 69.0573 98.2818 68.2159 99.4791 68.2159C100.676 68.2159 101.275 69.0512 101.275 70.7216V71.7497H97.6832ZM103.763 73.9933V74.1993C103.749 74.5846 103.823 74.9681 103.979 75.3209C104.134 75.6738 104.367 75.9869 104.661 76.237C105.214 76.6912 105.91 76.9361 106.625 76.9289C107.376 76.9612 108.113 76.7222 108.702 76.2558C108.981 75.999 109.199 75.6822 109.338 75.3292C109.478 74.9761 109.535 74.5961 109.506 74.2177C109.529 73.5626 109.313 72.9214 108.898 72.4138C108.348 71.8523 107.64 71.4708 106.868 71.3198C106.832 71.3039 106.794 71.2914 106.756 71.2826C106.531 71.2075 106.351 71.1451 106.214 71.0954C106.034 71.0246 105.862 70.937 105.699 70.8338C105.501 70.7178 105.34 70.5494 105.232 70.3474C105.122 70.1337 105.067 69.8961 105.072 69.6559C105.072 68.6959 105.615 68.2159 106.7 68.2159C107.117 68.2043 107.523 68.3552 107.832 68.6369C108.169 68.9922 108.353 69.4652 108.346 69.9548V70.1607H109.394V69.9736C109.407 69.5972 109.34 69.2221 109.196 68.8738C109.053 68.5255 108.836 68.212 108.561 67.9543C108.049 67.4998 107.385 67.253 106.7 67.2624C106.011 67.2356 105.334 67.447 104.783 67.861C104.52 68.0885 104.315 68.3746 104.183 68.6961C104.051 69.0177 103.997 69.3657 104.025 69.712C104.016 70.0834 104.093 70.4519 104.249 70.789C104.394 71.0887 104.617 71.3438 104.895 71.5271C105.146 71.698 105.412 71.8452 105.69 71.9669C105.974 72.0829 106.269 72.173 106.569 72.2361C107.089 72.3669 107.57 72.6202 107.972 72.9747C108.134 73.1448 108.259 73.3463 108.339 73.5666C108.419 73.7869 108.454 74.0213 108.44 74.2554C108.44 75.4023 107.835 75.9757 106.625 75.9754C106.17 75.9861 105.725 75.8337 105.372 75.5455C105.184 75.369 105.036 75.1539 104.94 74.915C104.843 74.6761 104.799 74.4191 104.811 74.1616V73.9933H103.763ZM112.349 65.8417V64.701H111.133V65.8417H112.349ZM112.275 76.7795V67.4307H111.21V76.7795H112.276H112.275ZM114.295 75.0591C114.408 75.4473 114.617 75.8008 114.903 76.0871C115.141 76.313 115.42 76.4908 115.726 76.6108C116.027 76.7243 116.347 76.7814 116.669 76.779C117.101 76.8054 117.531 76.6973 117.899 76.4696C118.268 76.2418 118.557 75.9057 118.726 75.5073V76.5731C118.726 78.2184 118.128 79.0411 116.931 79.0411C116.567 79.0662 116.206 78.9643 115.91 78.7528C115.613 78.5414 115.399 78.2336 115.305 77.882H114.22C114.337 78.528 114.699 79.104 115.23 79.4898C115.733 79.8276 116.327 80.0037 116.932 79.9946C117.286 79.9981 117.637 79.9412 117.971 79.8264C118.299 79.7079 118.604 79.5306 118.869 79.3031C119.174 79.0297 119.403 78.6818 119.533 78.2935C119.704 77.8008 119.787 77.2817 119.776 76.7602V67.4307H118.99L118.878 68.6086C118.691 68.1863 118.379 67.8311 117.985 67.5905C117.59 67.3499 117.132 67.2355 116.671 67.2624C116.349 67.26 116.029 67.3171 115.728 67.4307C115.422 67.5508 115.143 67.7286 114.905 67.9543C114.619 68.2408 114.41 68.5945 114.296 68.9828C114.138 69.491 114.062 70.0212 114.072 70.5534V73.4885C114.062 74.0206 114.137 74.5508 114.295 75.0591H114.295ZM118.252 75.2273C118.101 75.4334 117.902 75.5991 117.672 75.71C117.442 75.8209 117.188 75.8735 116.933 75.8632C115.723 75.8632 115.118 74.9159 115.118 73.0214V71.0582C115.131 69.1637 115.736 68.2162 116.933 68.2159C117.188 68.2057 117.442 68.2584 117.672 68.3692C117.902 68.4801 118.101 68.6458 118.252 68.8518C118.57 69.276 118.729 70.0115 118.729 71.0582V73.0214C118.728 74.0681 118.569 74.8034 118.251 75.2273H118.252ZM121.629 67.4307V76.7795H122.676V70.8338C122.676 69.0886 123.275 68.2159 124.472 68.2159C125.681 68.2159 126.286 69.1634 126.287 71.0582V76.7795H127.334V70.5534C127.344 70.0212 127.268 69.491 127.11 68.9828C126.996 68.5945 126.787 68.2408 126.502 67.9543C126.263 67.7287 125.984 67.5509 125.678 67.4307C125.377 67.3171 125.057 67.2601 124.735 67.2624C124.272 67.2362 123.812 67.3556 123.419 67.6037C123.027 67.8518 122.722 68.2163 122.547 68.6463L122.416 67.4307H121.63H121.629ZM134.781 77.9013H136.034V63.6914H134.781V77.9013ZM146.809 75.1713L144.395 67.4307H143.348L146.21 76.7795H147.426L150.288 67.4307H149.222L146.809 75.1713ZM152.926 65.8417V64.701H151.707V65.8417H152.923H152.926ZM152.851 76.7795V67.4307H151.783V76.7795H152.849H152.851ZM154.534 73.9933V74.1993C154.521 74.5846 154.594 74.9681 154.75 75.3209C154.905 75.6738 155.139 75.9869 155.432 76.237C155.985 76.691 156.681 76.936 157.397 76.9289C158.147 76.9613 158.884 76.7224 159.473 76.2558C159.753 75.9991 159.97 75.6823 160.11 75.3292C160.249 74.9762 160.307 74.5961 160.278 74.2177C160.301 73.5626 160.085 72.9215 159.67 72.4138C159.119 71.8523 158.412 71.4708 157.64 71.3198C157.604 71.3039 157.566 71.2914 157.528 71.2826C157.303 71.2075 157.122 71.1451 156.985 71.0954C156.806 71.0247 156.634 70.9371 156.471 70.8338C156.273 70.7176 156.111 70.5494 156.003 70.3474C155.894 70.1336 155.839 69.896 155.844 69.6559C155.844 68.6959 156.387 68.2159 157.472 68.2159C157.889 68.2043 158.295 68.3552 158.603 68.6369C158.94 68.9924 159.125 69.4653 159.118 69.9548V70.1607H160.165V69.9736C160.179 69.5972 160.111 69.2222 159.968 68.8739C159.824 68.5256 159.608 68.2121 159.333 67.9543C158.82 67.4999 158.157 67.2531 157.472 67.2624C156.783 67.2355 156.105 67.4469 155.554 67.861C155.291 68.0885 155.086 68.3747 154.954 68.6962C154.823 69.0177 154.769 69.3657 154.797 69.712C154.788 70.0835 154.864 70.452 155.021 70.789C155.166 71.0887 155.388 71.3438 155.666 71.5271C155.917 71.698 156.183 71.8452 156.461 71.9669C156.746 72.083 157.04 72.1731 157.34 72.2361C157.86 72.3667 158.342 72.62 158.743 72.9747C158.905 73.1448 159.03 73.3462 159.11 73.5665C159.191 73.7868 159.225 74.0213 159.211 74.2554C159.211 75.4023 158.606 75.9757 157.397 75.9754C156.941 75.9861 156.497 75.8336 156.144 75.5455C155.956 75.369 155.808 75.1539 155.711 74.915C155.614 74.6761 155.57 74.4191 155.582 74.1616V73.9933H154.534ZM166.451 73.3763C166.451 75.1219 165.852 75.9945 164.655 75.9942C163.445 75.9942 162.84 75.0468 162.84 73.152V67.4307H161.793V73.6568C161.783 74.1883 161.856 74.718 162.008 75.2273C162.115 75.616 162.322 75.9702 162.606 76.2558C162.845 76.4817 163.124 76.6595 163.43 76.7795C163.731 76.8931 164.051 76.9501 164.373 76.9478C164.839 76.9758 165.302 76.8574 165.698 76.6093C166.094 76.3612 166.402 75.9957 166.58 75.5639L166.692 76.7795H167.497V67.4307H166.449V73.3763H166.451ZM173.931 68.5902C173.746 68.1714 173.437 67.8195 173.046 67.582C172.654 67.3445 172.199 67.233 171.742 67.2624C171.42 67.26 171.1 67.3171 170.799 67.4307C170.492 67.5521 170.209 67.7297 169.967 67.9543C169.676 68.2384 169.463 68.5926 169.35 68.9828C169.191 69.491 169.115 70.0212 169.125 70.5534V73.6384C169.115 74.1705 169.191 74.7008 169.35 75.2089C169.463 75.5991 169.676 75.9532 169.967 76.237C170.209 76.4618 170.492 76.6394 170.799 76.7606C171.1 76.8742 171.42 76.9313 171.742 76.9289C172.203 76.9563 172.662 76.8396 173.054 76.595C173.446 76.3505 173.753 75.9901 173.931 75.5639L174.043 76.7795H174.829V67.4307H174.043L173.931 68.5902ZM171.985 68.2159C173.183 68.2159 173.781 69.1634 173.781 71.0582V73.1336C173.781 74.1806 173.622 74.9159 173.304 75.3395C173.153 75.5455 172.954 75.7113 172.724 75.8222C172.494 75.9331 172.241 75.9857 171.985 75.9754C170.776 75.9754 170.171 75.0281 170.171 73.1336V71.0582C170.171 69.1637 170.776 68.2162 171.985 68.2159ZM177.747 76.7795V63.6914H176.7V76.7795H177.747ZM180.796 65.8417V64.701H179.58V65.8417H180.796ZM180.721 76.7795V67.4307H179.655V76.7795H180.721ZM187.718 68.2536V67.4307H182.387V68.4031H186.577L182.181 75.9565V76.7795H187.775V75.8259H183.341L187.718 68.2536ZM193.798 68.5902C193.613 68.1715 193.304 67.8196 192.912 67.5822C192.521 67.3447 192.066 67.2331 191.609 67.2624C191.287 67.2601 190.967 67.3172 190.666 67.4307C190.359 67.5523 190.076 67.7298 189.834 67.9543C189.543 68.2385 189.33 68.5927 189.216 68.9828C189.058 69.491 188.982 70.0212 188.992 70.5534V73.6384C188.982 74.1705 189.058 74.7008 189.216 75.2089C189.33 75.599 189.543 75.9531 189.834 76.237C190.076 76.4616 190.359 76.6392 190.666 76.7606C190.967 76.8741 191.287 76.9312 191.609 76.9289C192.07 76.9561 192.529 76.8394 192.921 76.5949C193.313 76.3503 193.619 75.9901 193.798 75.5639L193.91 76.7795H194.696V67.4307H193.91L193.798 68.5902ZM191.852 68.2159C193.049 68.2159 193.648 69.1634 193.648 71.0582V73.1336C193.648 74.1806 193.489 74.9159 193.171 75.3395C193.02 75.5455 192.821 75.7112 192.591 75.8221C192.361 75.933 192.107 75.9856 191.852 75.9754C190.642 75.9754 190.038 75.0281 190.038 73.1336V71.0582C190.038 69.1637 190.642 68.2162 191.852 68.2159ZM200.513 68.3658V67.4307H198.53V64.57H197.464V67.4307H196.043V68.3658H197.464V73.5262C197.452 74.1258 197.508 74.7249 197.632 75.3117C197.705 75.7048 197.891 76.0683 198.166 76.3586C198.388 76.5777 198.661 76.7383 198.961 76.8262C199.315 76.9151 199.68 76.956 200.046 76.9478H200.513V75.9942H200.289C200.009 76.0032 199.729 75.9749 199.456 75.9099C199.247 75.8429 199.064 75.7122 198.933 75.5361C198.756 75.2912 198.646 75.0044 198.615 74.7041C198.551 74.2144 198.522 73.7207 198.53 73.2269V68.3658H200.513ZM203.413 65.8417V64.701H202.197V65.8417H203.413ZM203.338 76.7795V67.4307H202.272V76.7795H203.338ZM205.377 75.1995C205.507 75.5933 205.736 75.9473 206.042 76.228C206.307 76.462 206.615 76.6428 206.948 76.7606C207.616 76.985 208.339 76.985 209.007 76.7606C209.341 76.6426 209.651 76.4652 209.923 76.237C210.236 75.9613 210.469 75.606 210.596 75.2089C210.768 74.7034 210.85 74.172 210.84 73.6384V70.5534C210.85 70.0197 210.768 69.4884 210.596 68.9828C210.469 68.5856 210.236 68.2303 209.923 67.9543C209.651 67.7263 209.341 67.5489 209.007 67.4307C208.339 67.2063 207.616 67.2063 206.948 67.4307C206.615 67.5485 206.307 67.7295 206.042 67.9638C205.736 68.2445 205.507 68.5985 205.377 68.9922C205.205 69.4944 205.123 70.0228 205.134 70.5534V73.6384C205.123 74.169 205.206 74.6974 205.378 75.1995H205.377ZM207.977 75.9754C207.722 75.9857 207.469 75.9331 207.239 75.8222C207.009 75.7113 206.81 75.5455 206.659 75.3395C206.34 74.9159 206.181 74.1806 206.182 73.1336V71.0582C206.182 70.0112 206.344 69.2757 206.668 68.8518C206.818 68.6476 207.016 68.483 207.244 68.3722C207.472 68.2614 207.724 68.2078 207.977 68.2159C209.187 68.2159 209.792 69.1634 209.792 71.0582V73.1336C209.792 75.0281 209.187 75.9754 207.977 75.9754ZM212.561 67.4307V76.7795H213.608V70.8338C213.608 69.0886 214.207 68.2159 215.404 68.2159C216.614 68.2159 217.219 69.1634 217.219 71.0582V76.7795H218.267V70.5534C218.276 70.0212 218.2 69.491 218.042 68.9828C217.928 68.5945 217.719 68.2409 217.434 67.9543C217.195 67.7287 216.916 67.5509 216.611 67.4307C216.309 67.3171 215.99 67.2601 215.668 67.2624C215.204 67.2362 214.744 67.3556 214.352 67.6037C213.959 67.8518 213.654 68.2163 213.479 68.6463L213.348 67.4307H212.562H212.561Z" fill="#F6F6FA"/>
<path fill-rule="evenodd" clip-rule="evenodd" d="M5.65329 0.874649H-0.00372314V50.6837H5.38391L5.24922 8.75165L34.813 50.6837H40.2006V0.874649H34.813L34.8803 42.4719L5.65329 0.874649ZM47.8115 25.9802C47.8115 40.1816 59.0578 51.5578 73.8068 51.5578C88.4882 51.5578 99.8022 40.3844 99.8022 25.7796C99.8022 11.1748 88.4212 0.000976562 73.8068 0.000976562C59.7321 0.000976562 47.8115 10.5681 47.8115 25.9142V25.9815V25.9802ZM53.4012 25.7109C53.4012 14.2015 62.0883 4.91277 73.806 4.91277C85.6588 4.91277 94.279 14.4034 94.279 25.7787C94.279 37.154 85.6587 46.6446 73.8742 46.6446C62.2239 46.6446 53.4012 37.4905 53.4012 25.7787V25.7114V25.7109ZM107.008 50.6814H112.597V5.78779H120.409C124.921 5.78779 128.019 5.98972 130.511 7.60515C133.609 9.62443 135.427 13.5284 135.427 17.2299C135.477 18.9349 135.167 20.6312 134.517 22.2084C133.867 23.7856 132.892 25.2084 131.656 26.384C128.962 28.874 124.113 28.9418 120.611 28.9418H118.995L133.069 50.6819H139.13L126.739 32.038C131.318 31.5669 134.887 30.6245 137.85 26.5864C139.873 23.7416 140.913 20.3153 140.813 16.8265C140.813 11.1726 138.052 5.85555 134.011 3.43286C131.452 1.81743 127.816 0.875101 120.004 0.875101H107.008V50.6841V50.6814ZM147.011 50.6814H162.164C178.932 50.6814 187.485 40.7196 187.485 25.7109C187.485 18.6434 185.532 12.7875 181.492 8.34511C176.508 2.42187 168.965 0.874204 161.895 0.874204H147.01V50.6832L147.011 50.6814ZM152.534 5.78779H162.433C169.234 5.78779 173.882 8.009 177.046 11.3745C180.346 15.0092 181.895 20.1247 181.895 25.9133C181.895 37.8944 175.229 45.7687 162.433 45.7687H152.533V5.7869L152.534 5.78779ZM204.39 50.6814H209.979V33.1809L226.007 0.87241H219.946L207.218 27.7962L194.423 0.87241H188.361L204.39 33.1809V50.6814Z" fill="#F6F6FA"/>
</g>
<defs>
<clipPath id="clip0">
<rect width="226" height="80" fill="white"/>
</clipPath>
</defs>
</svg>
