<svg width="68" height="60" viewBox="0 0 68 60" fill="none" xmlns="http://www.w3.org/2000/svg">
<path d="M67.023 60H0.977012C0.43731 60 0 59.562 0 59.0214V0.978588C0 0.438016 0.43731 0 0.977012 0H60.2511C60.7908 0 61.2281 0.438016 61.2281 0.978588V29.9162H67.023C67.5627 29.9162 68 30.3542 68 30.8948V59.0214C68 59.562 67.5627 60 67.023 60ZM17.7816 58.0428H66.046V31.8734H45.841C45.3013 31.8734 44.864 31.4354 44.864 30.8948V29.0108H42.4519C41.9122 29.0108 41.4749 28.5728 41.4749 28.0323C41.4749 27.4917 41.9122 27.0537 42.4519 27.0537H44.864V20.7253C44.864 20.1848 45.3013 19.7467 45.841 19.7467C46.3807 19.7467 46.818 20.1848 46.818 20.7253V29.9162H52.496V1.95718H46.818V9.11261C46.818 9.65319 46.3807 10.0912 45.841 10.0912C45.3013 10.0912 44.864 9.65319 44.864 9.11261V6.11148H29.5057C28.966 6.11148 28.5287 5.67346 28.5287 5.13289V1.95718H24.9619V6.50292C24.9619 7.04349 24.5246 7.4815 23.9849 7.4815C23.4452 7.4815 23.0078 7.04349 23.0078 6.50292V1.95718H21.9503V4.48076C21.9503 5.02133 21.513 5.45935 20.9733 5.45935H20.6689C20.8436 5.859 20.9409 6.30054 20.9409 6.764V9.30833C20.9409 11.107 19.48 12.5702 17.6843 12.5702C15.8886 12.5702 14.4277 11.107 14.4277 9.30833V6.764C14.4277 6.30015 14.525 5.859 14.6997 5.45935H14.3953C13.8556 5.45935 13.4183 5.02133 13.4183 4.48076V1.95718H9.86782V14.9188C9.86782 15.4593 9.43051 15.8974 8.89081 15.8974H7.62069V21.3923H23.0078V16.876C23.0078 16.3354 23.4452 15.8974 23.9849 15.8974C24.5246 15.8974 24.9619 16.3354 24.9619 16.876V27.0533H27.3739C27.9136 27.0533 28.3509 27.4913 28.3509 28.0319C28.3509 28.5724 27.9136 29.0104 27.3739 29.0104H24.9619V33.8055C24.9619 34.3461 24.5246 34.7841 23.9849 34.7841C23.4452 34.7841 23.0078 34.3461 23.0078 33.8055V23.3495H9.05377V51.453H16.8046C17.3443 51.453 17.7816 51.891 17.7816 52.4316V58.0428ZM1.95402 58.0428H15.8276V53.4102H8.07676C7.53706 53.4102 7.09975 52.9722 7.09975 52.4316V35.4042H1.95402V58.0428ZM1.95402 33.447H7.09975V23.3495H1.95402V33.447ZM57.8391 29.9162H59.2741V1.95718H57.8391V29.9162ZM54.45 29.9162H55.8851V1.95718H54.45V29.9162ZM1.95402 21.0514H5.66667V15.8974H1.95402V21.0514ZM7.91379 13.9402V1.95718H1.95402V13.9402H7.91379ZM17.6839 5.45935C16.9656 5.45935 16.3814 6.04494 16.3814 6.764V9.30833C16.3814 10.0278 16.9656 10.613 17.6839 10.613C18.4022 10.613 18.9865 10.0278 18.9865 9.30833V6.764C18.9865 6.04494 18.4022 5.45935 17.6839 5.45935ZM30.4828 4.1543H44.864V1.95718H30.4828V4.1543ZM19.9963 3.50217V1.95718H15.3715V3.50217H19.9963ZM39.0633 55.1388H31.2296C30.6899 55.1388 30.2526 54.7007 30.2526 54.1602V36.2277C30.2526 35.6872 30.6899 35.2491 31.2296 35.2491H39.0633C39.603 35.2491 40.0403 35.6872 40.0403 36.2277V54.1606C40.0403 54.7007 39.6026 55.1388 39.0633 55.1388ZM32.2066 53.1816H38.0863V52.203H34.6186C34.0789 52.203 33.6416 51.765 33.6416 51.2244V39.1635C33.6416 38.6229 34.0789 38.1849 34.6186 38.1849H38.0863V37.2063H32.2066V53.1816ZM35.5957 50.2458H38.0863V40.1421H35.5957V50.2458ZM60.2511 54.5516C59.7114 54.5516 59.2741 54.1136 59.2741 53.573V36.7413C59.2741 36.2007 59.7114 35.7627 60.2511 35.7627C60.7908 35.7627 61.2281 36.2007 61.2281 36.7413V39.7773C61.7362 39.8117 62.1379 40.2356 62.1379 40.7535V49.5608C62.1379 50.0787 61.7366 50.5026 61.2281 50.537V53.573C61.2281 54.1136 60.7908 54.5516 60.2511 54.5516ZM50.8323 53.3773C47.7251 53.3773 45.2911 50.0247 45.2911 45.7443C45.2911 41.464 47.7251 38.1113 50.8323 38.1113C53.9396 38.1113 56.3736 41.464 56.3736 45.7443C56.3736 50.0247 53.9396 53.3773 50.8323 53.3773ZM50.8323 40.0685C48.8877 40.0685 47.2452 42.6676 47.2452 45.7443C47.2452 48.821 48.8881 51.4201 50.8323 51.4201C52.7766 51.4201 54.4195 48.821 54.4195 45.7443C54.4195 42.6676 52.7766 40.0685 50.8323 40.0685Z" fill="#424141"/>
</svg>
