<svg width="60" height="60" viewBox="0 0 60 60" fill="none" xmlns="http://www.w3.org/2000/svg">
<path d="M54.9998 0H5.00015C2.23984 0.00320435 0.00320435 2.23984 0 5.00015V41.0001C0.00320435 43.7599 2.23984 45.9966 5.00015 46.0002H23.6559L21.2558 54.0001H20.0002C18.343 54.0001 17 55.3432 17 56.9998C17 58.6569 18.343 60 20.0002 60H39.9998C41.657 60 43 58.6569 43 56.9998C43 55.3432 41.657 54.0001 39.9998 54.0001H38.7442L36.3441 46.0002H54.9998C57.7602 45.9966 59.9968 43.7599 60 41.0001V5.00015C59.9968 2.23984 57.7602 0.00320435 54.9998 0ZM5.00015 1.99997H54.9998C56.656 2.0018 57.9982 3.34396 58 5.00015V37.0001H1.99997V5.00015C2.0018 3.34396 3.34396 2.0018 5.00015 1.99997ZM41.0001 56.9998C40.9996 57.5519 40.5519 57.9996 39.9998 58H20.0002C19.4476 58 18.9999 57.5523 18.9999 56.9998C18.9999 56.4478 19.4476 56.0001 20.0002 56.0001H39.9998C40.5519 56.0005 40.9996 56.4478 41.0001 56.9998ZM36.6563 54.0001H23.3437L25.7437 46.0002H34.2558L36.6563 54.0001ZM54.9998 43.9998H31.0002V41.9998C31.0002 41.4478 30.5521 41.0001 30 41.0001C29.4479 41.0001 28.9998 41.4478 28.9998 41.9998V43.9998H5.00015C3.34396 43.998 2.0018 42.6562 1.99997 41.0001V39.0001H58V41.0001C57.9982 42.6562 56.656 43.998 54.9998 43.9998Z" fill="#424141"/>
<path d="M13.9998 33.0002H24.9998C26.656 32.9984 27.9982 31.6562 28 30V9.00009C27.9982 7.3439 26.656 6.00174 24.9998 5.99991H13.9998C12.8961 6.00128 12.0012 6.89575 11.9998 7.99988V11.0001C12.0012 12.1042 12.8961 12.9987 13.9998 13H20.9999V16.0002H17C15.8958 16.0011 15.0014 16.8961 15 18.0002V20.9999C15.0014 22.104 15.8958 22.9985 17 22.9999H20.9999V26.0001H13.9998C12.8961 26.0014 12.0012 26.8959 11.9998 28V31.0002C12.0012 32.1039 12.8961 32.9988 13.9998 33.0002ZM20.9999 28C22.104 27.9987 22.9985 27.1042 22.9999 26.0001V22.9999C22.9985 21.8958 22.104 21.0013 20.9999 20.9999H17V18.0002H20.9999C22.104 17.9988 22.9985 17.1039 22.9999 16.0002V13C22.9985 11.8959 22.104 11.0014 20.9999 11.0001H13.9998V7.99988H24.9998C25.5519 8.00034 25.9996 8.44803 26.0001 9.00009V30C25.9996 30.5521 25.5519 30.9993 24.9998 31.0002H13.9998L13.9989 28H20.9999Z" fill="#424141"/>
<path d="M33.0002 33.0002H39.0001C43.4161 32.9951 46.9949 29.4164 47 24.9998V13.9998C46.9949 9.58374 43.4161 6.00494 39.0001 5.99991H33.0002C31.8961 6.00128 31.0011 6.89575 31.0002 7.99988V31.0002C31.0011 32.1039 31.8961 32.9988 33.0002 33.0002ZM33.0002 7.99988H39.0001C42.312 8.00354 44.9963 10.6879 45 13.9998V24.9998C44.9963 28.3122 42.312 30.9966 39.0001 31.0002H33.0002V7.99988Z" fill="#424141"/>
<path d="M41.9998 22.9999V16.0002C41.9966 13.2399 39.76 11.0033 37.0001 11.0001C36.4476 11.0001 35.9999 11.4478 35.9999 11.9998V26.9998C35.9999 27.5523 36.4476 28 37.0001 28C39.76 27.9968 41.9966 25.7602 41.9998 22.9999ZM39.9998 22.9999C39.9985 24.2711 39.1978 25.4036 37.9999 25.8284V13.1712C39.1978 13.5965 39.9985 14.729 39.9998 16.0002V22.9999Z" fill="#424141"/>
<path d="M5.00015 7.99988C5.55222 7.99988 5.99991 7.55219 5.99991 7.00012V5.99991C5.99991 5.44785 5.55222 5.00015 5.00015 5.00015C4.44763 5.00015 3.99994 5.44785 3.99994 5.99991V7.00012C3.99994 7.55219 4.44763 7.99988 5.00015 7.99988Z" fill="#424141"/>
<path d="M5.00015 22.0001C5.55222 22.0001 5.99991 21.5524 5.99991 20.9999V11.0001C5.99991 10.4475 5.55222 9.99985 5.00015 9.99985C4.44763 9.99985 3.99994 10.4475 3.99994 11.0001V20.9999C3.99994 21.5524 4.44763 22.0001 5.00015 22.0001Z" fill="#424141"/>
</svg>
