<svg width="58" height="60" viewBox="0 0 58 60" fill="none" xmlns="http://www.w3.org/2000/svg">
<g opacity="0.9">
<path d="M19.3277 44.1895C19.3159 44.1862 19.304 44.1838 19.2921 44.1809C20.3837 42.9561 21.0491 41.3402 21.0491 39.5707V34.3749C21.0491 31.3164 18.5728 28.8282 15.5289 28.8282H8.44492C7.80091 28.8282 7.27866 29.3528 7.27866 30.0001V39.5707C7.27866 41.3402 7.94413 42.9561 9.03564 44.1809C9.02374 44.1838 9.01184 44.1862 9.00007 44.1896C3.96029 44.6562 0 48.9263 0 54.1099V58.8283C0 59.4754 0.522253 60.0001 1.16626 60.0001H27.1617C27.8057 60.0001 28.328 59.4754 28.328 58.8283V54.1098C28.3279 48.926 24.3675 44.656 19.3277 44.1895ZM14.1639 44.1453C11.6536 44.1453 9.61119 42.0932 9.61119 39.5707V37.475C10.246 37.8235 10.9735 38.0219 11.7465 38.0219H18.7167V39.5707C18.7168 42.0932 16.6743 44.1453 14.1639 44.1453ZM16.1969 46.4891L14.1638 48.5319L12.1308 46.4891H16.1969ZM9.61107 31.172H15.5291C17.2867 31.172 18.7167 32.6088 18.7167 34.3749V35.6782H11.7465C10.569 35.6782 9.61107 34.7156 9.61107 33.5325V31.172ZM2.3323 57.6564V54.1098C2.3323 50.2536 5.19816 47.0593 8.90187 46.5593L13.339 51.0178C13.5668 51.2466 13.8653 51.3611 14.1637 51.3611C14.4622 51.3611 14.7606 51.2466 14.9884 51.0178L19.4257 46.5592C23.1292 47.0592 25.9952 50.2535 25.9952 54.1097V57.6564H2.3323Z" fill="#424141"/>
<path d="M52.0235 45.0579C52.9204 44.1641 53.477 42.9259 53.477 41.5594V36.7946C53.477 34.0906 52.1281 31.6984 50.0722 30.2577C50.0908 30.1742 50.1008 30.088 50.1008 30.0001V27.2141C52.8272 26.8706 54.9432 24.5267 54.9432 21.6954V9.95206C54.9432 6.88525 52.4601 4.39009 49.4079 4.39009H31.2761C28.2238 4.39009 25.7407 6.88525 25.7407 9.95206V21.6954C25.7407 24.7622 28.2238 27.2574 31.2761 27.2574H44.5555L46.1434 28.8529C45.9468 28.8382 45.7488 28.8282 45.5486 28.8282C41.1768 28.8282 37.6202 32.402 37.6202 36.7946V41.5592C37.6202 42.9259 38.1767 44.164 39.0737 45.0578C35.6806 46.6331 33.3193 50.0831 33.3193 54.0789V58.8283C33.3193 59.4754 33.8415 60.0001 34.4855 60.0001H56.6117C57.2557 60.0001 57.7779 59.4754 57.7779 58.8283V54.0791C57.7779 50.0832 55.4165 46.6332 52.0235 45.0579ZM45.8635 25.2569C45.6447 25.0372 45.3481 24.9137 45.0388 24.9137H31.2761C29.51 24.9137 28.0733 23.47 28.0733 21.6954V9.95206C28.0733 8.17748 29.51 6.73385 31.2761 6.73385H49.4078C51.1738 6.73385 52.6106 8.17748 52.6106 9.95206V10.0151H45.212C44.568 10.0151 44.0457 10.5398 44.0457 11.187C44.0457 11.8342 44.568 12.3589 45.212 12.3589H52.6106V21.6954C52.6106 23.47 51.1738 24.9137 49.4078 24.9137H48.9344C48.2904 24.9137 47.7681 25.4383 47.7681 26.0855V27.1708L45.8635 25.2569ZM39.9529 36.7946C39.9529 33.6943 42.4631 31.172 45.5487 31.172C48.6342 31.172 51.1444 33.6943 51.1444 36.7946V41.5592C51.1444 42.9852 49.99 44.1452 48.5709 44.1452H42.5264V44.1453C41.1073 44.1453 39.9529 42.9853 39.9529 41.5594V36.7946ZM55.4456 57.6564H35.6519V54.0791C35.6519 49.894 39.0405 46.4891 43.2056 46.4891H47.8921C52.0572 46.4891 55.4456 49.894 55.4456 54.0791V57.6564Z" fill="#424141"/>
<path d="M23.8696 0H10.3047C7.25253 0 4.76932 2.49516 4.76932 5.56197V17.3054C4.76932 20.1366 6.88528 22.4805 9.61166 22.824V25.61C9.61166 26.0839 9.89587 26.5113 10.3316 26.6927C10.4759 26.7528 10.6275 26.782 10.7777 26.782C11.0813 26.782 11.3795 26.6628 11.6026 26.4386L15.1568 22.8673H21.2175C21.8615 22.8673 22.3838 22.3427 22.3838 21.6954C22.3838 21.0482 21.8615 20.5236 21.2175 20.5236H14.6737C14.3644 20.5236 14.0678 20.6471 13.849 20.8668L11.9443 22.7807V21.6954C11.9443 21.0482 11.422 20.5236 10.778 20.5236H10.3047C8.53858 20.5236 7.10185 19.0799 7.10185 17.3054V5.56197C7.10185 3.78739 8.53869 2.34376 10.3047 2.34376H23.8695C24.5135 2.34376 25.0357 1.81911 25.0357 1.17188C25.0357 0.52465 24.5135 0 23.8696 0Z" fill="#424141"/>
<path d="M29.2615 0.34336C29.0435 0.125391 28.7436 0 28.437 0C28.129 0 27.8281 0.125391 27.6125 0.34336C27.3944 0.56133 27.2696 0.863674 27.2696 1.17188C27.2696 1.48008 27.3944 1.78243 27.6125 2.0004C27.8281 2.21836 28.129 2.34376 28.437 2.34376C28.7438 2.34376 29.0435 2.21836 29.2615 2.0004C29.4784 1.78243 29.6033 1.48008 29.6033 1.17188C29.6033 0.863674 29.4784 0.56133 29.2615 0.34336Z" fill="#424141"/>
<path d="M41.1666 10.3582C40.9498 10.1403 40.6488 10.0149 40.3422 10.0149C40.0354 10.0149 39.7345 10.1403 39.5176 10.3582C39.3007 10.5762 39.1759 10.8785 39.1759 11.1867C39.1759 11.495 39.3006 11.7973 39.5176 12.0153C39.7346 12.2332 40.0354 12.3586 40.3422 12.3586C40.6489 12.3586 40.9498 12.2332 41.1666 12.0153C41.3835 11.7973 41.5084 11.495 41.5084 11.1867C41.5084 10.8785 41.3836 10.5762 41.1666 10.3582Z" fill="#424141"/>
</g>
</svg>
