<svg width="59" height="60" viewBox="0 0 59 60" fill="none" xmlns="http://www.w3.org/2000/svg">
<path d="M43.3242 47.5348V37.9225C43.3241 36.4818 42.1609 35.3096 40.7312 35.3096H7.28852C5.8588 35.3096 4.6955 36.4818 4.6955 37.9225V47.5348C3.62443 47.9017 2.85131 48.9244 2.85131 50.1262C2.85131 51.6355 4.06984 52.8633 5.56736 52.8633H42.4522C43.9499 52.8633 45.1683 51.6354 45.1683 50.1262C45.1684 48.9244 44.3953 47.9017 43.3242 47.5348ZM6.43934 37.9223C6.43934 37.4505 6.8202 37.0668 7.28852 37.0668H40.7312C41.1994 37.0668 41.5804 37.4505 41.5804 37.9223V47.3892H6.43934V37.9223ZM42.4521 51.1061H5.56748C5.03148 51.1061 4.59526 50.6665 4.59526 50.1262C4.59526 49.5861 5.03148 49.1466 5.56748 49.1466H42.4524C42.9883 49.1466 43.4246 49.5861 43.4246 50.1262C43.4245 50.6665 42.9883 51.1061 42.4521 51.1061Z" fill="#424141"/>
<path d="M45.0515 38.6788H44.2936V40.436H45.0515C46.0375 40.436 46.0375 40.6736 46.0375 41.0024V52.7454C46.0375 53.5461 45.503 54.4938 45.0515 54.4938H2.96818C2.45323 54.4938 1.74383 53.4807 1.74383 52.7454V41.0025C1.74383 40.8187 1.74384 40.4361 2.96818 40.4361H3.72026V38.6789H2.96818C2.19262 38.6789 1.55451 38.8196 1.07154 39.0971C0.380515 39.4942 0 40.1709 0 41.0027V52.7457C0 53.484 0.301435 54.3293 0.806386 55.0066C1.39588 55.7978 2.18401 56.2514 2.9683 56.2514H3.72038V60H5.46421V56.2512H43.3639V60H45.1077V56.2491C46.8298 56.2052 47.7817 54.1629 47.7817 52.7455V41.0025C47.7813 40.1346 47.4266 38.6788 45.0515 38.6788Z" fill="#424141"/>
<path d="M11.1602 40.5536H9.30007V42.3108H11.1602V40.5536Z" fill="#424141"/>
<path d="M38.8292 40.5536H36.8529V42.3108H38.8292V40.5536Z" fill="#424141"/>
<path d="M24.9947 40.5536H23.1346V42.3108H24.9947V40.5536Z" fill="#424141"/>
<path d="M0.0848949 20.3412H28.5702V0H0.0848949V20.3412ZM1.82873 1.75723H26.8263V18.5839H1.82873V1.75723Z" fill="#424141"/>
<path d="M2.85131 2.78754V17.5536H25.8039V2.78754H2.85131ZM24.06 15.7964H4.59514V4.54477H24.0599V15.7964H24.06Z" fill="#424141"/>
<path d="M29.5927 20.4424V33.35H46.0905V20.4424H29.5927ZM44.3467 31.5928H31.3366V22.1996H44.3467V31.5928Z" fill="#424141"/>
<path d="M32.3589 23.23V30.5624H43.324V23.23H32.3589ZM41.5803 28.8052H34.1029V24.9873H41.5803V28.8052Z" fill="#424141"/>
<path d="M37.8416 3.71684C33.8016 3.71684 30.515 7.02879 30.515 11.0998C30.515 15.1709 33.8017 18.4827 37.8416 18.4827C41.8816 18.4827 45.1683 15.1706 45.1683 11.0998C45.1684 7.02879 41.8817 3.71684 37.8416 3.71684ZM38.7134 16.6567V15.7177H36.9695V16.6566C34.624 16.2841 32.7604 14.4346 32.3464 12.086H33.3656V10.3287H32.3124C32.6475 7.87852 34.5528 5.92676 36.9695 5.54309V6.8141H38.7134V5.5432C41.1302 5.92676 43.0358 7.87863 43.3707 10.3288H42.201V12.086H43.3369C42.9229 14.4347 41.0591 16.2844 38.7134 16.6567Z" fill="#424141"/>
<path d="M36.9695 8.22V10.3287H34.0631V12.0859H38.7134V8.22H36.9695Z" fill="#424141"/>
<path d="M54.408 55.4005V34.6957H52.6642V55.4005H48.0351V59.9453H59V55.4005H54.408ZM57.2563 58.1882H49.779V57.1579H57.2563V58.1882Z" fill="#424141"/>
<path d="M49.8793 12.0796V32.4207H52.664V33.8756H54.4079V32.4209H57.1558V12.0796H49.8793ZM55.4121 27.9011H52.6642V29.6583H55.4121V30.6636H51.6232V13.8368H55.4121V27.9011Z" fill="#424141"/>
<path d="M12.3276 6.7621L10.4834 8.62039L11.7165 9.86293L13.5606 8.00463L12.3276 6.7621Z" fill="#424141"/>
<path d="M16.9381 5.83262L10.4834 12.3369L11.7165 13.5794L18.1712 7.07515L16.9381 5.83262Z" fill="#424141"/>
<path d="M16.9378 10.4791L15.0937 12.3374L16.3267 13.5799L18.1709 11.7216L16.9378 10.4791Z" fill="#424141"/>
</svg>
