<svg width="60" height="60" viewBox="0 0 60 60" fill="none" xmlns="http://www.w3.org/2000/svg">
<path d="M33.0087 6H35.0092C35.5617 6 36.0095 5.55229 36.0095 5C36.0095 4.44772 35.5617 4 35.0092 4H33.0087C32.4563 4 32.0084 4.44772 32.0084 5C32.0084 5.55229 32.4563 6 33.0087 6Z" fill="#424141"/>
<path d="M7.00184 6H29.0076C29.5601 6 30.0079 5.55229 30.0079 5C30.0079 4.44772 29.5601 4 29.0076 4H7.00184C6.44941 4 6.00158 4.44772 6.00158 5C6.00158 5.55229 6.44941 6 7.00184 6Z" fill="#424141"/>
<path d="M58.7205 29.111C60.5656 27.056 60.395 23.8946 58.3394 22.05C56.2838 20.2054 53.1216 20.3759 51.2765 22.431C46.2412 28.036 48.5418 25.475 40.0105 34.974V22H49.0129C50.6702 22 52.0137 20.6569 52.0137 19V7C52.0087 3.13606 48.8768 0.00495836 45.0119 0H7.00185C3.13666 0.00440864 0.0044098 3.13583 0 7V57C0 58.6569 1.3435 60 3.00079 60H37.0098C38.667 60 40.0105 58.6569 40.0105 57V49.941L58.7205 29.111ZM52.7659 23.767C53.477 22.9501 54.5732 22.5798 55.6341 22.7979C56.6951 23.0161 57.5561 23.789 57.8869 24.8201C58.2178 25.8512 57.9671 26.9805 57.2311 27.775L53.8902 31.5C51.1325 29.025 52.1657 29.952 49.424 27.49L52.7659 23.767ZM50.0132 7V19C50.0132 19.5523 49.5653 20 49.0129 20H40.0105V7C40.0105 4.23858 42.2497 2 45.0119 2C47.774 2 50.0132 4.23858 50.0132 7ZM37.0098 58H3.00079C2.44836 58 2.00053 57.5523 2.00053 57V7C2.00383 4.23995 4.24106 2.00331 7.00185 2H40.1206C38.7709 3.31362 38.0098 5.11688 38.01 7V37.2L33.977 41.689C33.8214 40.1653 32.5402 39.0049 31.0082 39V24H33.9489C34.6026 24.0125 35.2215 23.7065 35.6082 23.1796C35.995 22.6527 36.1014 21.9706 35.8935 21.351L33.4238 14.351C33.1261 13.5348 32.3472 12.9939 31.4783 13H24.5355C23.6666 12.9942 22.8879 13.535 22.59 14.351L20.1193 21.351C19.9113 21.9708 20.0178 22.653 20.4048 23.18C20.7918 23.7069 21.411 24.0128 22.0648 24H25.0066V39C23.3493 39 22.0058 40.3431 22.0058 42V44H19.005V40.722C19.6209 40.3665 20.0017 39.7109 20.0053 39V37.22C20.7938 36.5181 21.1517 35.4513 20.946 34.416C20.7404 33.3806 20.0019 32.5315 19.005 32.184V26C19.005 23.7909 17.2137 22 15.004 22H10.0026C7.79291 22 6.00158 23.7909 6.00158 26V32.184C5.0042 32.531 4.26528 33.3802 4.0596 34.4158C3.85391 35.4513 4.21223 36.5183 5.00132 37.22V39C5.00346 39.7113 5.38467 40.3676 6.00158 40.722V44C5.44915 44 5.00132 44.4477 5.00132 45C5.00132 45.5523 5.44915 46 6.00158 46H31.0922L28.1594 54H12.0032C11.4507 54 11.0029 54.4477 11.0029 55C11.0029 55.5523 11.4507 56 12.0032 56H29.0076C29.3943 55.9995 29.7455 55.7748 29.9079 55.424L38.01 51.424V57C38.01 57.5523 37.5622 58 37.0098 58ZM36.8267 49.777L30.7331 52.785L33.0717 46.406L36.8267 49.777ZM22.0648 22C21.9648 22.027 21.7207 22.8 24.5355 15L31.5373 15.017L33.9489 22H22.0648ZM27.0071 24H29.0076V39H27.0071V24ZM31.0082 41C31.5606 41 32.0084 41.4477 32.0084 42V43.884C31.8594 44.05 32.7596 44 24.0063 44V42C24.0063 41.4477 24.4542 41 25.0066 41H31.0082ZM18.0047 34C18.5572 34 19.005 34.4477 19.005 35C19.005 35.5523 18.5572 36 18.0047 36C17.4523 36 17.0045 35.5523 17.0045 35C17.0045 34.4477 17.4523 34 18.0047 34ZM17.0045 32.184C16.1573 32.4865 15.4906 33.1531 15.188 34H9.81759C9.51519 33.1533 8.84889 32.4868 8.00211 32.184V26C8.00211 24.8954 8.89777 24 10.0026 24H15.004C16.1088 24 17.0045 24.8954 17.0045 26V32.184ZM7.00185 34C7.55428 34 8.00211 34.4477 8.00211 35C8.00211 35.5523 7.55428 36 7.00185 36C6.44941 36 6.00158 35.5523 6.00158 35C6.00158 34.4477 6.44941 34 7.00185 34ZM9.81759 36H15.188C15.6104 37.1944 16.7376 37.9948 18.0047 38V39H7.00185V38C8.2686 37.9943 9.39535 37.194 9.81759 36ZM8.00211 41H9.78658L9.18642 44H8.00211V41ZM11.8221 41H13.1875L13.7876 44H11.222L11.8221 41ZM15.223 41H17.0045V44H15.8232L15.223 41ZM38.5192 48.608L34.054 44.6L48.0877 28.975L52.5539 32.984L38.5192 48.608Z" fill="#424141"/>
<path d="M9.00237 54H6.00158C5.44915 54 5.00132 54.4477 5.00132 55C5.00132 55.5523 5.44915 56 6.00158 56H9.00237C9.5548 56 10.0026 55.5523 10.0026 55C10.0026 54.4477 9.5548 54 9.00237 54Z" fill="#424141"/>
</svg>
